<svg width="281" height="52" viewBox="0 0 281 52" fill="none" xmlns="http://www.w3.org/2000/svg">
<path fill-rule="evenodd" clip-rule="evenodd" d="M45.2212 12.8881L45.2212 25.988L38.5109 25.988L38.511 16.7942L22.5553 7.73304L6.71024 16.8817L6.71024 26.0398L1.6668e-06 26.0398L2.23645e-06 13.0076L22.5276 0.000563583L45.2212 12.8881Z" fill="#298D68"/>
<path fill-rule="evenodd" clip-rule="evenodd" d="M24.0071 6.88845L24.2088 6.77195L24.1405 6.65374L26.6022 2.3215L25.3951 1.6356L22.5166 -1.78585e-07L3.44157e-05 13.0082L3.38461e-05 26.0398L6.71027 26.0398L6.71027 16.8811L22.5443 7.73358L23.2871 8.15566L24.0071 6.88845Z" fill="#58B8BC"/>
<path fill-rule="evenodd" clip-rule="evenodd" d="M-5.63331e-07 39.1119L-1.13595e-06 26.012L6.71024 26.012L6.71024 35.2058L22.6659 44.267L38.5109 35.1183L38.5109 25.9602L45.2212 25.9602L45.2212 38.9924L22.6935 51.9994L-5.63331e-07 39.1119Z" fill="#BA1E4F"/>
<path fill-rule="evenodd" clip-rule="evenodd" d="M21.2141 45.1115L21.0124 45.2281L21.0807 45.3463L18.619 49.6785L19.8261 50.3644L22.7046 52L45.2212 38.9918L45.2212 25.9602L38.5109 25.9602L38.5109 35.1189L22.6769 44.2664L21.9341 43.8443L21.2141 45.1115Z" fill="#E0824C"/>
<path d="M63.1429 41.9084L60.4166 37.211H57.9113V41.9084H55.7928V29.0135H60.9508C62.1052 29.0135 63.0815 29.4188 63.8798 30.2293C64.6903 31.0276 65.0956 32.0039 65.0956 33.1583C65.0956 33.9811 64.8561 34.7364 64.3771 35.4241C63.9105 36.0995 63.2964 36.5908 62.535 36.8978L65.464 41.9084H63.1429ZM57.9113 31.003V35.3136H60.9508C61.5157 35.3136 61.9947 35.1048 62.3877 34.6873C62.7806 34.2697 62.9771 33.76 62.9771 33.1583C62.9771 32.5565 62.7806 32.0469 62.3877 31.6293C61.9947 31.2118 61.5157 31.003 60.9508 31.003H57.9113Z" fill="black"/>
<path d="M68.8403 39.882H74.5509V41.9084H66.7218V29.0135H74.4588V31.0398H68.8403V34.3925H73.9982V36.4004H68.8403V39.882Z" fill="black"/>
<path d="M81.1875 29.0135C82.956 29.0135 84.4235 29.6337 85.5902 30.8741C86.7692 32.1144 87.3587 33.6434 87.3587 35.4609C87.3587 37.2662 86.7692 38.7952 85.5902 40.0478C84.4235 41.2882 82.956 41.9084 81.1875 41.9084H76.1217V29.0135H81.1875ZM81.1875 39.882C82.4033 39.882 83.392 39.4645 84.1534 38.6294C84.9271 37.7943 85.3139 36.7382 85.3139 35.4609C85.3139 34.1715 84.9271 33.1153 84.1534 32.2925C83.392 31.4574 82.4033 31.0398 81.1875 31.0398H78.2401V39.882H81.1875Z" fill="black"/>
<path d="M98.2243 29.0135C99.9928 29.0135 101.46 29.6337 102.627 30.8741C103.806 32.1144 104.395 33.6434 104.395 35.4609C104.395 37.2662 103.806 38.7952 102.627 40.0478C101.46 41.2882 99.9928 41.9084 98.2243 41.9084H93.1585V29.0135H98.2243ZM98.2243 39.882C99.4401 39.882 100.429 39.4645 101.19 38.6294C101.964 37.7943 102.351 36.7382 102.351 35.4609C102.351 34.1715 101.964 33.1153 101.19 32.2925C100.429 31.4574 99.4401 31.0398 98.2243 31.0398H95.2769V39.882H98.2243Z" fill="black"/>
<path d="M108.077 39.882H113.787V41.9084H105.958V29.0135H113.695V31.0398H108.077V34.3925H113.235V36.4004H108.077V39.882Z" fill="black"/>
<path d="M132.14 35.2399V36.1241C132.14 37.8926 131.557 39.3417 130.39 40.4715C129.223 41.5891 127.7 42.1479 125.822 42.1479C123.832 42.1479 122.186 41.5031 120.885 40.2136C119.595 38.9241 118.95 37.3399 118.95 35.4609C118.95 33.5943 119.595 32.0162 120.885 30.7267C122.186 29.4249 123.795 28.774 125.711 28.774C126.914 28.774 128.014 29.0504 129.008 29.603C130.003 30.1556 130.777 30.8986 131.329 31.832L129.506 32.882C129.162 32.2679 128.652 31.7767 127.977 31.4083C127.301 31.0276 126.546 30.8372 125.711 30.8372C124.36 30.8372 123.249 31.2793 122.377 32.1635C121.505 33.0478 121.069 34.153 121.069 35.4794C121.069 36.8057 121.505 37.9048 122.377 38.7768C123.261 39.6487 124.415 40.0847 125.84 40.0847C126.982 40.0847 127.909 39.8206 128.622 39.2926C129.346 38.7522 129.807 38.0338 130.003 37.1373H125.693V35.2399H132.14Z" fill="black"/>
<path d="M135.827 39.882H141.537V41.9084H133.708V29.0135H141.445V31.0398H135.827V34.3925H140.985V36.4004H135.827V39.882Z" fill="black"/>
<path d="M147.4 42.1479C146.16 42.1479 145.104 41.8654 144.232 41.3005C143.372 40.7356 142.77 39.9619 142.427 38.9794L144.25 37.911C144.766 39.3601 145.834 40.0847 147.456 40.0847C148.254 40.0847 148.849 39.9312 149.242 39.6241C149.648 39.3048 149.85 38.8934 149.85 38.3899C149.85 37.8618 149.635 37.4627 149.206 37.1925C148.776 36.9101 148.014 36.6031 146.921 36.2715C146.307 36.0873 145.81 35.9153 145.429 35.7557C145.048 35.596 144.643 35.375 144.213 35.0925C143.796 34.7978 143.483 34.4355 143.274 34.0057C143.065 33.5758 142.961 33.0723 142.961 32.4951C142.961 31.353 143.366 30.4504 144.177 29.7872C144.987 29.1118 145.963 28.774 147.106 28.774C148.137 28.774 149.04 29.0258 149.813 29.5293C150.587 30.0328 151.183 30.7267 151.6 31.6109L149.813 32.6425C149.273 31.439 148.37 30.8372 147.106 30.8372C146.491 30.8372 146 30.9846 145.632 31.2793C145.263 31.5618 145.079 31.9486 145.079 32.4399C145.079 32.9188 145.263 33.2995 145.632 33.582C146.013 33.8522 146.694 34.1408 147.677 34.4478C148.168 34.6074 148.524 34.7302 148.745 34.8162C148.978 34.8899 149.298 35.0127 149.703 35.1846C150.12 35.3566 150.434 35.5285 150.642 35.7004C150.851 35.8724 151.072 36.0873 151.306 36.3452C151.551 36.6031 151.723 36.8978 151.821 37.2294C151.92 37.561 151.969 37.9355 151.969 38.3531C151.969 39.5198 151.545 40.447 150.698 41.1347C149.863 41.8101 148.763 42.1479 147.4 42.1479Z" fill="black"/>
<path d="M161.339 29.0135V31.0398H157.71V41.9084H155.592V31.0398H151.945V29.0135H161.339Z" fill="black"/>
<path d="M162.538 29.0135H164.656V41.9084H162.538V29.0135Z" fill="black"/>
<path d="M171.617 27.724H173.533L175.485 25.2372H173.091L171.617 27.724ZM177.641 40.2136C176.351 41.5031 174.773 42.1479 172.907 42.1479C171.04 42.1479 169.456 41.5031 168.154 40.2136C166.864 38.9119 166.22 37.3276 166.22 35.4609C166.22 33.5943 166.864 32.0162 168.154 30.7267C169.456 29.4249 171.04 28.774 172.907 28.774C174.773 28.774 176.351 29.4249 177.641 30.7267C178.943 32.0162 179.593 33.5943 179.593 35.4609C179.593 37.3276 178.943 38.9119 177.641 40.2136ZM169.646 38.7768C170.53 39.6487 171.617 40.0847 172.907 40.0847C174.196 40.0847 175.277 39.6487 176.149 38.7768C177.033 37.8926 177.475 36.7873 177.475 35.4609C177.475 34.1346 177.033 33.0355 176.149 32.1635C175.277 31.2793 174.196 30.8372 172.907 30.8372C171.617 30.8372 170.53 31.2793 169.646 32.1635C168.774 33.0355 168.338 34.1346 168.338 35.4609C168.338 36.7873 168.774 37.8926 169.646 38.7768Z" fill="black"/>
<path d="M188.894 29.0135H191.013V41.9084H189.355L183.276 33.1583V41.9084H181.157V29.0135H182.815L188.894 37.7636V29.0135Z" fill="black"/>
<path d="M203.554 42.1479C201.614 42.1479 200.005 41.5093 198.728 40.232C197.45 38.9426 196.812 37.3522 196.812 35.4609C196.812 33.5697 197.45 31.9855 198.728 30.7083C200.005 29.4188 201.614 28.774 203.554 28.774C204.721 28.774 205.795 29.0504 206.778 29.603C207.772 30.1556 208.546 30.9048 209.099 31.8504L207.257 32.9188C206.913 32.2802 206.409 31.7767 205.746 31.4083C205.095 31.0276 204.365 30.8372 203.554 30.8372C202.179 30.8372 201.061 31.2732 200.201 32.1451C199.354 33.0171 198.93 34.1223 198.93 35.4609C198.93 36.7996 199.354 37.9048 200.201 38.7768C201.061 39.6487 202.179 40.0847 203.554 40.0847C204.365 40.0847 205.101 39.9005 205.765 39.532C206.428 39.1513 206.925 38.6417 207.257 38.0031L209.099 39.0531C208.558 39.9987 207.791 40.754 206.796 41.3189C205.814 41.8715 204.733 42.1479 203.554 42.1479Z" fill="black"/>
<path d="M218.761 40.9321C217.853 41.7426 216.68 42.1479 215.243 42.1479C213.806 42.1479 212.633 41.7426 211.725 40.9321C210.816 40.1092 210.361 39.0101 210.361 37.6347V29.0135H212.48V37.5057C212.48 38.2917 212.707 38.918 213.161 39.3847C213.628 39.8513 214.322 40.0847 215.243 40.0847C216.164 40.0847 216.852 39.8513 217.306 39.3847C217.773 38.918 218.006 38.2917 218.006 37.5057V29.0135H220.125V37.6347C220.125 39.0101 219.67 40.1092 218.761 40.9321Z" fill="black"/>
<path d="M224.311 39.882H229.561V41.9084H222.193V29.0135H224.311V39.882Z" fill="black"/>
<path d="M237.852 29.0135V31.0398H234.223V41.9084H232.104V31.0398H228.457V29.0135H237.852Z" fill="black"/>
<path d="M247.321 40.9321C246.412 41.7426 245.239 42.1479 243.802 42.1479C242.366 42.1479 241.193 41.7426 240.284 40.9321C239.375 40.1092 238.921 39.0101 238.921 37.6347V29.0135H241.039V37.5057C241.039 38.2917 241.266 38.918 241.721 39.3847C242.187 39.8513 242.881 40.0847 243.802 40.0847C244.723 40.0847 245.411 39.8513 245.866 39.3847C246.332 38.918 246.566 38.2917 246.566 37.5057V29.0135H248.684V37.6347C248.684 39.0101 248.23 40.1092 247.321 40.9321Z" fill="black"/>
<path d="M258.102 41.9084L255.376 37.211H252.871V41.9084H250.752V29.0135H255.91C257.065 29.0135 258.041 29.4188 258.839 30.2293C259.65 31.0276 260.055 32.0039 260.055 33.1583C260.055 33.9811 259.816 34.7364 259.337 35.4241C258.87 36.0995 258.256 36.5908 257.494 36.8978L260.423 41.9084H258.102ZM252.871 31.003V35.3136H255.91C256.475 35.3136 256.954 35.1048 257.347 34.6873C257.74 34.2697 257.937 33.76 257.937 33.1583C257.937 32.5565 257.74 32.0469 257.347 31.6293C256.954 31.2118 256.475 31.003 255.91 31.003H252.871Z" fill="black"/>
<path d="M270.081 41.9084L269.179 39.311H263.689L262.787 41.9084H260.484L265.163 29.0135H267.705L272.366 41.9084H270.081ZM264.389 37.3215H268.479L266.434 31.5004L264.389 37.3215Z" fill="black"/>
<path d="M275.502 39.882H280.752V41.9084H273.384V29.0135H275.502V39.882Z" fill="black"/>
<path d="M61.352 14.4262H56.9105V17.6786H61.1658V18.9394H56.9105V23.1947H55.578V13.1654H61.352V14.4262Z" fill="black"/>
<path d="M70.1725 22.421C69.4752 23.061 68.5726 23.381 67.4646 23.381C66.3566 23.381 65.4491 23.061 64.7423 22.421C64.045 21.7715 63.6964 20.9071 63.6964 19.8277V13.1654H65.0289V19.7704C65.0289 20.4773 65.239 21.0408 65.6593 21.4611C66.0796 21.8718 66.6813 22.0772 67.4646 22.0772C68.2478 22.0772 68.8496 21.8718 69.2699 21.4611C69.6901 21.0408 69.9003 20.4773 69.9003 19.7704V13.1654H71.2184V19.8277C71.2184 20.9071 70.8698 21.7715 70.1725 22.421Z" fill="black"/>
<path d="M80.348 13.1654H81.6805V23.1947H80.6059L75.448 15.7014V23.1947H74.1155V13.1654H75.1901L80.348 20.6444V13.1654Z" fill="black"/>
<path d="M88.5969 13.1654C89.9628 13.1654 91.0947 13.6525 91.9926 14.6268C92.9 15.5915 93.3537 16.776 93.3537 18.1801C93.3537 19.5842 92.9 20.7734 91.9926 21.7476C91.0947 22.7124 89.9628 23.1947 88.5969 23.1947H84.6855V13.1654H88.5969ZM88.5969 21.9339C89.619 21.9339 90.4548 21.5757 91.1043 20.8593C91.7538 20.143 92.0786 19.2499 92.0786 18.1801C92.0786 17.1103 91.7538 16.2172 91.1043 15.5008C90.4548 14.7844 89.619 14.4262 88.5969 14.4262H86.018V21.9339H88.5969Z" fill="black"/>
<path d="M102.07 23.1947L101.254 20.9453H96.7405L95.9238 23.1947H94.5054L98.2449 13.1654H99.7493L103.489 23.1947H102.07ZM97.199 19.6988H100.795L98.99 14.7558L97.199 19.6988Z" fill="black"/>
<path d="M109.882 23.381C108.363 23.381 107.107 22.8795 106.113 21.8766C105.13 20.8737 104.638 19.6415 104.638 18.1801C104.638 16.7186 105.13 15.4865 106.113 14.4835C107.107 13.4806 108.363 12.9791 109.882 12.9791C110.799 12.9791 111.639 13.1988 112.403 13.6382C113.177 14.0776 113.779 14.6698 114.209 15.4148L113.048 16.0882C112.762 15.5342 112.332 15.0948 111.759 14.7701C111.195 14.4358 110.569 14.2686 109.882 14.2686C108.726 14.2686 107.78 14.6411 107.045 15.3862C106.319 16.1312 105.956 17.0625 105.956 18.1801C105.956 19.2881 106.319 20.2146 107.045 20.9596C107.78 21.7047 108.726 22.0772 109.882 22.0772C110.569 22.0772 111.195 21.9148 111.759 21.59C112.332 21.2557 112.762 20.8164 113.048 20.2719L114.209 20.931C113.788 21.676 113.191 22.273 112.418 22.7219C111.644 23.1613 110.799 23.381 109.882 23.381Z" fill="black"/>
<path d="M116.577 13.1654H117.91V23.1947H116.577V13.1654Z" fill="black"/>
<path d="M124.718 12.1481H125.921L127.368 10.2569H125.864L124.718 12.1481ZM129.26 21.8623C128.257 22.8748 127.029 23.381 125.577 23.381C124.126 23.381 122.898 22.8748 121.895 21.8623C120.892 20.8498 120.391 19.6224 120.391 18.1801C120.391 16.7282 120.892 15.5008 121.895 14.4979C122.898 13.4854 124.126 12.9791 125.577 12.9791C127.029 12.9791 128.257 13.4854 129.26 14.4979C130.272 15.5008 130.778 16.7282 130.778 18.1801C130.778 19.6224 130.272 20.8498 129.26 21.8623ZM122.812 20.9596C123.557 21.7047 124.479 22.0772 125.577 22.0772C126.676 22.0772 127.593 21.7047 128.328 20.9596C129.073 20.205 129.446 19.2785 129.446 18.1801C129.446 17.0721 129.073 16.1455 128.328 15.4005C127.593 14.6459 126.676 14.2686 125.577 14.2686C124.479 14.2686 123.557 14.6459 122.812 15.4005C122.077 16.1455 121.709 17.0721 121.709 18.1801C121.709 19.2785 122.077 20.205 122.812 20.9596Z" fill="black"/>
<path d="M139.472 13.1654H140.805V23.1947H139.73L134.572 15.7014V23.1947H133.24V13.1654H134.315L139.472 20.6444V13.1654Z" fill="black"/>
</svg>
