<!-- Generator: Adobe Illustrator 22.1.0, SVG Export Plug-In  -->
<svg version="1.1"
	 xmlns="http://www.w3.org/2000/svg" xmlns:xlink="http://www.w3.org/1999/xlink" xmlns:a="http://ns.adobe.com/AdobeSVGViewerExtensions/3.0/"
	 x="0px" y="0px" width="367.711px" height="151.776px" viewBox="0 0 367.711 151.776"
	 style="enable-background:new 0 0 367.711 151.776;" xml:space="preserve">
<style type="text/css">
	.st0{fill:#111C26;}
	.st1{fill:#E0824C;}
	.st2{fill:#BA1E4F;}
	.st3{fill:#298D68;}
	.st4{fill:#4EC2C2;}
</style>
<defs>
</defs>
<g>
	<path class="st0" d="M10.773,151.435L6.66,144.44H1.292v6.995H0v-17.061h6.726c1.381,0,2.567,0.496,3.559,1.487
		c0.991,0.991,1.487,2.177,1.487,3.558c0,1.155-0.353,2.177-1.06,3.071c-0.706,0.894-1.605,1.487-2.693,1.779l4.241,7.165H10.773z
		 M1.292,135.592v7.628h5.435c1.04,0,1.926-0.37,2.657-1.109c0.731-0.739,1.097-1.637,1.097-2.693c0-1.056-0.366-1.958-1.097-2.705
		c-0.731-0.747-1.617-1.121-2.657-1.121H1.292z"/>
	<path class="st0" d="M16.232,150.216h8.531v1.219H14.94v-17.061h9.701v1.219h-8.409v6.629h7.8v1.219h-7.8V150.216z"/>
	<path class="st0" d="M34.341,134.374c2.324,0,4.245,0.824,5.765,2.474c1.519,1.65,2.278,3.668,2.278,6.057
		c0,2.389-0.759,4.408-2.278,6.057c-1.52,1.65-3.441,2.474-5.765,2.474h-6.41v-17.061H34.341z M34.341,150.216
		c1.983,0,3.607-0.703,4.875-2.108s1.901-3.14,1.901-5.204c0-2.063-0.634-3.798-1.901-5.204c-1.267-1.405-2.892-2.108-4.875-2.108
		h-5.118v14.624H34.341z"/>
	<path class="st0" d="M65.611,142.27v1.317c0,2.437-0.78,4.412-2.34,5.922c-1.56,1.511-3.575,2.267-6.045,2.267
		c-2.632,0-4.813-0.857-6.544-2.572c-1.73-1.714-2.596-3.806-2.596-6.275c0-2.487,0.857-4.591,2.572-6.313
		c1.714-1.723,3.839-2.584,6.373-2.584c1.592,0,3.047,0.361,4.363,1.084c1.316,0.724,2.339,1.686,3.07,2.888l-2.876,1.658
		c-0.406-0.699-1.02-1.268-1.84-1.706c-0.822-0.439-1.736-0.658-2.743-0.658c-1.625,0-2.961,0.532-4.009,1.597
		c-1.048,1.064-1.572,2.409-1.572,4.034c0,1.608,0.532,2.937,1.597,3.984c1.064,1.048,2.474,1.573,4.229,1.573
		c1.3,0,2.376-0.289,3.23-0.865c0.853-0.576,1.434-1.369,1.743-2.377h-5.167v-2.973H65.611z"/>
	<path class="st0" d="M71.362,148.217h7.19v3.218H67.999v-17.061h10.432v3.217h-7.069v3.632h6.459v3.168h-6.459V148.217z"/>
	<path class="st0" d="M86.742,151.776c-1.691,0-3.112-0.378-4.265-1.134c-1.155-0.756-1.967-1.783-2.437-3.083l2.876-1.682
		c0.666,1.739,1.974,2.608,3.924,2.608c0.942,0,1.633-0.171,2.072-0.512c0.438-0.341,0.658-0.771,0.658-1.292
		c0-0.601-0.268-1.068-0.804-1.402c-0.536-0.332-1.495-0.694-2.876-1.084c-0.764-0.228-1.41-0.455-1.938-0.683
		c-0.528-0.228-1.056-0.532-1.584-0.914c-0.529-0.382-0.93-0.865-1.207-1.45c-0.276-0.586-0.414-1.268-0.414-2.048
		c0-1.543,0.549-2.774,1.645-3.693c1.097-0.918,2.417-1.377,3.961-1.377c1.382,0,2.596,0.338,3.644,1.011
		c1.048,0.675,1.865,1.613,2.449,2.815l-2.827,1.633c-0.683-1.462-1.771-2.193-3.266-2.193c-0.698,0-1.247,0.158-1.645,0.475
		s-0.597,0.727-0.597,1.231c0,0.537,0.222,0.972,0.67,1.305c0.446,0.333,1.304,0.694,2.572,1.084
		c0.52,0.163,0.914,0.289,1.182,0.378c0.268,0.09,0.633,0.228,1.097,0.414c0.463,0.187,0.82,0.361,1.072,0.524
		c0.252,0.163,0.54,0.382,0.865,0.658c0.326,0.276,0.573,0.561,0.744,0.853c0.17,0.293,0.317,0.646,0.438,1.06
		c0.123,0.414,0.183,0.865,0.183,1.353c0,1.576-0.573,2.827-1.718,3.753C90.068,151.313,88.577,151.776,86.742,151.776z"/>
	<path class="st0" d="M105.802,134.374v3.217h-4.607v13.844h-3.363v-13.844h-4.583v-3.217H105.802z"/>
	<path class="st0" d="M107.678,134.374h3.363v17.061h-3.363V134.374z"/>
	<path class="st0" d="M128.566,149.204c-1.723,1.715-3.819,2.572-6.288,2.572c-2.47,0-4.563-0.857-6.276-2.572
		c-1.715-1.714-2.572-3.814-2.572-6.3c0-2.486,0.857-4.586,2.572-6.301c1.714-1.714,3.806-2.571,6.276-2.571
		c2.469,0,4.565,0.857,6.288,2.571c1.722,1.715,2.584,3.815,2.584,6.301C131.15,145.39,130.288,147.491,128.566,149.204z
		 M118.353,146.913c1.057,1.048,2.365,1.573,3.925,1.573c1.56,0,2.867-0.524,3.924-1.573c1.056-1.048,1.584-2.384,1.584-4.009
		s-0.528-2.965-1.584-4.022c-1.057-1.056-2.364-1.584-3.924-1.584c-1.56,0-2.868,0.528-3.925,1.584
		c-1.056,1.057-1.584,2.397-1.584,4.022S117.298,145.866,118.353,146.913z M120.328,132.643h3.023l2.705-3.338h-3.778
		L120.328,132.643z"/>
	<path class="st0" d="M143.384,134.374h3.363v17.061h-2.559l-7.312-10.432v10.432h-3.363v-17.061h2.556l7.315,10.393V134.374z"/>
	<path class="st0" d="M161.76,151.776c-2.567,0-4.688-0.853-6.361-2.559c-1.673-1.706-2.51-3.811-2.51-6.313
		c0-2.519,0.837-4.627,2.51-6.325c1.673-1.698,3.794-2.547,6.361-2.547c1.543,0,2.97,0.361,4.278,1.084
		c1.307,0.724,2.327,1.703,3.059,2.937l-2.9,1.682c-0.423-0.764-1.024-1.361-1.804-1.791c-0.779-0.431-1.657-0.646-2.632-0.646
		c-1.657,0-2.994,0.52-4.009,1.56c-1.016,1.039-1.523,2.388-1.523,4.046c0,1.641,0.508,2.982,1.523,4.022
		c1.016,1.039,2.352,1.56,4.009,1.56c0.975,0,1.856-0.216,2.645-0.646c0.788-0.431,1.385-1.02,1.791-1.768l2.9,1.682
		c-0.731,1.235-1.747,2.214-3.047,2.937C164.75,151.415,163.32,151.776,161.76,151.776z"/>
	<path class="st0" d="M177.53,151.776c-1.901,0-3.461-0.536-4.68-1.608c-1.219-1.072-1.828-2.51-1.828-4.315v-11.479h3.339v11.211
		c0,0.894,0.255,1.601,0.768,2.121c0.511,0.521,1.312,0.78,2.401,0.78c1.088,0,1.888-0.26,2.401-0.78
		c0.511-0.52,0.768-1.227,0.768-2.121v-11.211h3.363v11.479c0,1.804-0.609,3.242-1.828,4.315S179.447,151.776,177.53,151.776z"/>
	<path class="st0" d="M190.447,148.217h6.508v3.218h-9.871v-17.061h3.363V148.217z"/>
	<path class="st0" d="M208.411,134.374v3.217h-4.607v13.844h-3.363v-13.844h-4.583v-3.217H208.411z"/>
	<path class="st0" d="M216.648,151.776c-1.901,0-3.461-0.536-4.68-1.608s-1.828-2.51-1.828-4.315v-11.479h3.339v11.211
		c0,0.894,0.255,1.601,0.768,2.121c0.511,0.521,1.312,0.78,2.401,0.78c1.088,0,1.888-0.26,2.401-0.78
		c0.511-0.52,0.768-1.227,0.768-2.121v-11.211h3.363v11.479c0,1.804-0.609,3.242-1.828,4.315S218.565,151.776,216.648,151.776z"/>
	<path class="st0" d="M235.562,151.435l-3.449-5.923h-2.547v5.923h-3.363v-17.061h6.824c1.575,0,2.917,0.553,4.022,1.657
		c1.104,1.105,1.657,2.437,1.657,3.997c0,1.057-0.301,2.036-0.902,2.937c-0.6,0.902-1.397,1.581-2.388,2.036l3.778,6.434H235.562z
		 M229.566,137.517v5.046h3.461c0.634,0,1.177-0.248,1.633-0.744c0.455-0.495,0.683-1.092,0.683-1.791
		c0-0.698-0.228-1.292-0.683-1.779c-0.456-0.488-0.999-0.732-1.633-0.732H229.566z"/>
	<path class="st0" d="M252.382,151.435l-1.085-3.071h-7.008l-1.024,3.071h-3.631l5.971-17.061h4.168l6.019,17.061H252.382z
		 M245.384,145.22h4.802l-2.462-6.971L245.384,145.22z"/>
	<path class="st0" d="M260.812,148.217h6.508v3.218h-9.871v-17.061h3.363V148.217z"/>
	<path class="st0" d="M279.31,134.374c1.527,0,2.795,0.503,3.802,1.51c1.007,1.008,1.511,2.267,1.511,3.779
		c0,1.51-0.504,2.766-1.511,3.766c-1.007,0.999-2.275,1.499-3.802,1.499h-4.509v6.508h-1.292v-17.061H279.31z M279.31,143.709
		c1.17,0,2.133-0.382,2.888-1.145s1.134-1.731,1.134-2.9c0-1.186-0.378-2.161-1.134-2.925c-0.756-0.764-1.718-1.145-2.888-1.145
		h-4.509v8.116H279.31z"/>
	<path class="st0" d="M298.358,150.07c-1.145,1.089-2.661,1.633-4.546,1.633c-1.885,0-3.396-0.544-4.533-1.633
		c-1.137-1.089-1.706-2.534-1.706-4.338v-11.358h1.292v11.358c0,1.43,0.431,2.575,1.292,3.436c0.861,0.862,2.08,1.292,3.656,1.292
		c1.576,0,2.799-0.43,3.669-1.292c0.868-0.861,1.304-2.006,1.304-3.436v-11.358h1.292v11.358
		C300.076,147.536,299.504,148.981,298.358,150.07z M292.764,132.668l1.185-0.005l2.211-3.1l-1.446,0.01L292.764,132.668z"/>
	<path class="st0" d="M313.165,142.588c0.877,0.341,1.584,0.886,2.12,1.632c0.536,0.748,0.804,1.601,0.804,2.56
		c0,1.284-0.455,2.381-1.364,3.29c-0.91,0.91-2.007,1.365-3.291,1.365h-7.36v-17.061h6.8c1.235,0,2.292,0.438,3.169,1.316
		c0.877,0.877,1.316,1.934,1.316,3.169c0,0.812-0.199,1.547-0.597,2.206C314.362,141.722,313.831,142.23,313.165,142.588z
		 M310.873,135.592h-5.508v6.531h5.508c0.877,0,1.629-0.32,2.255-0.962c0.625-0.641,0.938-1.409,0.938-2.303
		s-0.313-1.661-0.938-2.304C312.502,135.914,311.75,135.592,310.873,135.592z M311.434,150.216c0.926,0,1.718-0.337,2.377-1.012
		c0.658-0.673,0.986-1.482,0.986-2.424c0-0.942-0.328-1.751-0.986-2.425c-0.659-0.674-1.451-1.012-2.377-1.012h-6.069v6.874H311.434
		z"/>
	<path class="st0" d="M320.549,150.216h8.043v1.219h-9.335v-17.061h1.292V150.216z"/>
	<path class="st0" d="M331.273,134.374h1.292v17.061h-1.292V134.374z"/>
	<path class="st0" d="M344.702,151.703c-2.567,0-4.688-0.849-6.361-2.547c-1.673-1.698-2.51-3.781-2.51-6.252
		s0.837-4.553,2.51-6.252c1.673-1.698,3.794-2.547,6.361-2.547c1.56,0,2.99,0.37,4.29,1.109c1.3,0.739,2.307,1.735,3.022,2.985
		l-1.145,0.659c-0.569-1.057-1.405-1.906-2.51-2.547c-1.105-0.642-2.324-0.963-3.656-0.963c-2.209,0-4.026,0.727-5.447,2.182
		c-1.422,1.454-2.133,3.245-2.133,5.374c0,2.129,0.711,3.92,2.133,5.374c1.422,1.455,3.238,2.181,5.447,2.181
		c1.332,0,2.559-0.325,3.681-0.974c1.121-0.65,1.966-1.52,2.534-2.608l1.146,0.659c-0.699,1.267-1.706,2.278-3.023,3.034
		C347.725,151.325,346.279,151.703,344.702,151.703z"/>
	<path class="st0" d="M366.345,151.435l-1.665-4.338h-8.541l-1.664,4.338h-1.364l6.628-17.061h1.366l6.605,17.061H366.345z
		 M356.606,145.878h7.607l-3.804-9.914L356.606,145.878z"/>
</g>
<g>
	<g>
		<path class="st1" d="M327.307,0c11.42,0,21.009,3.718,28.768,11.154c7.756,7.433,11.636,16.916,11.636,28.442
			c0,11.531-3.879,21.011-11.636,28.445c-7.759,7.436-17.347,11.154-28.768,11.154h-15.03v33.938h-28.93V0H327.307z M327.307,51.719
			c3.233,0,5.953-1.132,8.162-3.395c2.207-2.263,3.312-5.173,3.312-8.729c0-3.554-1.106-6.435-3.312-8.644
			c-2.209-2.209-4.929-3.315-8.162-3.315h-15.03v24.083H327.307z"/>
	</g>
	<g>
		<path class="st2" d="M243.816,118.184c-17.024,0-31.11-5.629-42.261-16.888s-16.727-25.294-16.727-42.102
			s5.576-30.841,16.727-42.1s25.237-16.888,42.261-16.888c10.235,0,19.718,2.422,28.445,7.272
			c8.729,4.849,15.569,11.369,20.526,19.557l-25.053,14.384c-2.155-3.987-5.36-7.138-9.614-9.455
			c-4.259-2.317-9.027-3.477-14.304-3.477c-9.05,0-16.349,2.83-21.899,8.485c-5.55,5.658-8.321,13.068-8.321,22.222
			c0,9.16,2.771,16.565,8.321,22.222c5.55,5.658,12.85,8.485,21.899,8.485c5.278,0,10.045-1.157,14.304-3.474
			c4.254-2.317,7.459-5.522,9.614-9.617l25.053,14.546c-4.957,8.298-11.775,14.843-20.444,19.636
			C263.667,115.785,254.158,118.184,243.816,118.184z"/>
	</g>
	<g>
		<path class="st3" d="M194.267,50.952v11.474c0,16.593-5.198,30.035-15.595,40.322c-10.399,10.291-23.895,15.436-40.486,15.436
			c-17.671,0-32.188-5.658-43.555-16.97c-11.369-11.313-17.05-25.266-17.05-41.859c0-16.591,5.655-30.597,16.968-42.02
			c11.315-11.418,25.319-17.129,42.02-17.129c10.558,0,20.229,2.371,29.012,7.11c8.78,4.742,15.649,11.046,20.606,18.91
			L161.62,40.286c-2.26-3.556-5.576-6.409-9.937-8.567c-4.364-2.153-9.293-3.233-14.789-3.233c-8.944,0-16.27,2.91-21.979,8.729
			c-5.711,5.817-8.565,13.252-8.565,22.302c0,8.729,2.828,16.108,8.483,22.143c5.658,6.035,13.601,9.05,23.839,9.05
			c13.145,0,21.817-4.955,26.02-14.869h-27.475V50.952H194.267z"/>
	</g>
	<g>
		<path class="st4" d="M58.991,115.759L39.272,79.235H28.93v36.524H0V2.627h45.253c11.528,0,21.196,3.692,29.009,11.071
			c7.81,7.382,11.718,16.727,11.718,28.042c0,6.787-1.724,13.009-5.173,18.666c-3.448,5.655-8.136,10.155-14.061,13.494
			l23.274,41.859H58.991z M28.93,29.294V54.67h16c3.556,0.108,6.466-1.024,8.726-3.395c2.263-2.368,3.395-5.44,3.395-9.214
			c0-3.769-1.132-6.84-3.395-9.211c-2.26-2.368-5.17-3.556-8.726-3.556H28.93z"/>
	</g>
</g>
</svg>